<svg width="24" height="24" viewBox="0 0 24 24" fill="none" xmlns="http://www.w3.org/2000/svg">
<g id="close">
    <path fill-rule="evenodd" clip-rule="evenodd" d="M22.4681 0C22.7181 0 22.9264 0.0363303 23.0931 0.108991C23.2597 0.181652 23.3951 0.259645 23.499 0.342971C23.5824 0.426298 23.6867 0.582618 23.812 0.811932C23.9373 1.04125 24 1.28089 24 1.53087C24 1.71819 23.9583 1.91617 23.875 2.12482C23.7917 2.33347 23.6667 2.47946 23.5 2.56279L14.0628 12L23.5 21.4372C23.6667 21.6039 23.7917 21.7705 23.875 21.9372C23.9583 22.1038 24 22.2808 24 22.4681C24 22.7181 23.9637 22.9264 23.891 23.0931C23.8183 23.2597 23.7404 23.3951 23.657 23.499C23.5737 23.5824 23.4174 23.6867 23.1881 23.812C22.9588 23.9373 22.7191 24 22.4691 24C22.2818 24 22.0838 23.9583 21.8752 23.875C21.6665 23.7917 21.5205 23.6667 21.4372 23.5L12 14.0628L2.56279 23.5C2.39613 23.6667 2.22948 23.7917 2.06283 23.875C1.89618 23.9583 1.71919 24 1.53187 24C1.28189 24 1.07358 23.9637 0.906924 23.891C0.740272 23.8183 0.60495 23.7404 0.500958 23.657C0.417632 23.5737 0.313307 23.4174 0.187984 23.1881C0.0626615 22.9588 0 22.7191 0 22.4691C0 22.2818 0.0416632 22.0838 0.12499 21.8752C0.208316 21.6665 0.333306 21.5205 0.499958 21.4372L9.93717 12L0.499958 2.56279C0.333306 2.39613 0.208316 2.22948 0.12499 2.06283C0.0416632 1.89618 0 1.71919 0 1.53187C0 1.28189 0.0363303 1.07358 0.108991 0.906924C0.181652 0.740272 0.259645 0.60495 0.342971 0.500958C0.426298 0.417632 0.582618 0.313307 0.811932 0.187984C1.04125 0.0626615 1.28089 0 1.53087 0C1.71819 0 1.91617 0.0416632 2.12482 0.12499C2.33347 0.208316 2.47946 0.333306 2.56279 0.499958L12 9.93717L21.4372 0.499958C21.6039 0.333306 21.7705 0.208316 21.9372 0.12499C22.1038 0.0416632 22.2808 0 22.4681 0V0Z" fill="#EA650D"/>
</g>
</svg>
