<svg width="16" height="16" viewBox="0 0 16 16" fill="none" xmlns="http://www.w3.org/2000/svg">
<path d="M11.2748 8.75213H13.4955C13.7874 8.75213 14.024 8.51553 14.024 8.22367V6.01613C14.024 5.72427 13.7874 5.48767 13.4955 5.48767H11.2748C10.9829 5.48767 10.7463 5.72427 10.7463 6.01613V8.22367C10.7463 8.5156 10.9829 8.75213 11.2748 8.75213ZM11.413 6.15433H13.3573V8.08547H11.413V6.15433Z" fill="#414141"/>
<path d="M10.5866 1.2754H5.4912V1.94207H10.5866V1.2754Z" fill="#414141"/>
<path d="M11.8997 3.22753C12.084 3.22753 12.2331 3.07847 12.2331 2.8942V0.333333C12.2331 0.149067 12.084 0 11.8997 0C11.7155 0 11.5664 0.149067 11.5664 0.333333V2.8942C11.5664 3.07847 11.7155 3.22753 11.8997 3.22753Z" fill="#414141"/>
<path d="M13.1999 1.2754V1.94207C14.3763 1.94207 15.3333 2.89907 15.3333 4.0752V13.2057C15.3333 14.3815 14.3763 15.3385 13.1999 15.3385H2.7998C1.62367 15.3385 0.666667 14.3815 0.666667 13.2057V4.0752C0.666667 2.89907 1.62367 1.94207 2.7998 1.94207V1.2754C1.25587 1.2754 0 2.53127 0 4.0752V13.2057C0 14.7493 1.25587 16.0052 2.7998 16.0052H13.1999C14.7441 16.0052 16 14.7493 16 13.2057V4.0752C16 2.53127 14.7441 1.2754 13.1999 1.2754Z" fill="#414141"/>
<path d="M1.98693 6.01613V8.22367C1.98693 8.51553 2.22353 8.75213 2.5154 8.75213H4.73613C5.028 8.75213 5.2646 8.51553 5.2646 8.22367V6.01613C5.2646 5.72427 5.028 5.48767 4.73613 5.48767H2.5154C2.22353 5.48767 1.98693 5.72427 1.98693 6.01613ZM2.6536 6.15433H4.59787V8.08547H2.6536V6.15433Z" fill="#414141"/>
<path d="M9.11573 9.59413H6.895C6.60313 9.59413 6.36653 9.83073 6.36653 10.1226V12.3302C6.36653 12.622 6.60313 12.8587 6.895 12.8587H9.11573C9.4076 12.8587 9.6442 12.6221 9.6442 12.3302V10.1226C9.6442 9.83073 9.40767 9.59413 9.11573 9.59413ZM8.97753 12.192H7.03327V10.2609H8.97753V12.192Z" fill="#414141"/>
<path d="M4.73607 9.59413H2.5154C2.22353 9.59413 1.98693 9.83073 1.98693 10.1226V12.3302C1.98693 12.622 2.22353 12.8587 2.5154 12.8587H4.73613C5.028 12.8587 5.2646 12.6221 5.2646 12.3302V10.1226C5.26453 9.83073 5.02793 9.59413 4.73607 9.59413ZM4.59787 12.192H2.6536V10.2609H4.59787V12.192Z" fill="#414141"/>
<path d="M9.6442 6.01613C9.6442 5.72427 9.4076 5.48767 9.11573 5.48767H6.895C6.60313 5.48767 6.36653 5.72427 6.36653 6.01613V8.22367C6.36653 8.51553 6.60313 8.75213 6.895 8.75213H9.11573C9.4076 8.75213 9.6442 8.51553 9.6442 8.22367V6.01613ZM8.97753 8.08547H7.03327V6.15433H8.97753V8.08547Z" fill="#414141"/>
<path d="M4.18487 3.22753C4.36913 3.22753 4.5182 3.07847 4.5182 2.8942V0.333333C4.5182 0.149067 4.36913 0 4.18487 0C4.0006 0 3.85153 0.149067 3.85153 0.333333V2.8942C3.85153 3.07847 4.00067 3.22753 4.18487 3.22753Z" fill="#414141"/>
</svg>
