<svg width="14" height="14" viewBox="0 0 14 14" fill="none" xmlns="http://www.w3.org/2000/svg">
<path d="M10.4667 0.933333C10.3333 0.866667 10.1333 0.866667 10 1.06667C9.93333 1.2 9.93333 1.4 10.1333 1.53333C12.1333 2.66667 13.3333 4.8 13.3333 7.06667C13.3333 10.5333 10.4667 13.4 7 13.4C3.53333 13.4 0.666667 10.4667 0.666667 7C0.666667 3.53333 3.53333 0.666667 7 0.666667C7.4 0.666667 7.73333 0.733333 8.13333 0.8C8.33333 0.8 8.46667 0.733333 8.53333 0.533333C8.53333 0.333333 8.46667 0.2 8.26667 0.133333C7.86667 0.0666667 7.4 0 7 0C3.13333 0 0 3.13333 0 7C0 10.8667 3.13333 14 7 14C10.8667 14 14 10.8667 14 7C14 4.46667 12.6667 2.13333 10.4667 0.933333Z" fill="#999999"/>
<path d="M7 11.2C7.2 11.2 7.33333 11.0667 7.33333 10.8667V5.66667C7.33333 5.46667 7.2 5.33333 7 5.33333C6.8 5.33333 6.66667 5.46667 6.66667 5.66667V10.8667C6.66667 11 6.8 11.2 7 11.2Z" fill="#999999"/>
<path d="M6.73333 3.86667C6.73333 3.86667 6.8 3.93333 6.86667 3.93333C6.93333 3.93333 6.93333 3.93333 7 3.93333C7.06667 3.93333 7.06667 3.93333 7.13333 3.93333C7.2 3.93333 7.2 3.86667 7.26667 3.86667C7.26667 3.86667 7.33333 3.73333 7.33333 3.66667C7.33333 3.6 7.33333 3.6 7.33333 3.53333C7.33333 3.46667 7.26667 3.46667 7.26667 3.4C7.26667 3.4 7.2 3.33333 7.13333 3.33333C7.06667 3.33333 6.93333 3.33333 6.86667 3.33333C6.8 3.33333 6.8 3.4 6.73333 3.4C6.73333 3.46667 6.66667 3.6 6.66667 3.66667C6.66667 3.73333 6.66667 3.73333 6.66667 3.8C6.73333 3.8 6.73333 3.86667 6.73333 3.86667Z" fill="#999999"/>
</svg>
