<svg width="22" height="22" viewBox="0 0 22 22" fill="none" xmlns="http://www.w3.org/2000/svg">
<path d="M16.1987 1.6C15.9989 1.5 15.6992 1.6 15.4994 1.8C15.3995 2 15.4994 2.3 15.6992 2.5C18.6962 4.1 20.6943 7.1 20.8941 10.5C20.994 13 20.0948 15.5 18.3965 17.3C16.6982 19.2 14.3006 20.3 11.803 20.4C6.60815 20.6 2.11259 16.6 1.91279 11.3C1.71299 6.2 5.70904 1.7 11.0038 1.5C11.3035 1.5 11.5033 1.3 11.5033 1C11.4034 0.7 11.2036 0.5 10.9039 0.5C5.10963 0.8 0.713972 5.7 0.913775 11.5C1.21348 17.1 5.80894 21.5 11.4034 21.5C11.6032 21.5 11.7031 21.5 11.9029 21.5C17.6972 21.2 22.1928 16.3 21.8931 10.5C21.6933 6.8 19.4954 3.4 16.1987 1.6Z" fill="#EA650D"/>
<path d="M10.9039 5.3V10.5H5.70904C5.40934 10.5 5.20954 10.7 5.20954 11C5.20954 11.3 5.40934 11.5 5.70904 11.5H10.9039V16.7C10.9039 17 11.1037 17.2 11.4034 17.2C11.7031 17.2 11.9029 17 11.9029 16.7V11.5H17.0978C17.3975 11.5 17.5973 11.3 17.5973 11C17.5973 10.7 17.3975 10.5 17.0978 10.5H11.9029V5.3C11.9029 5 11.7031 4.8 11.4034 4.8C11.1037 4.8 10.9039 5 10.9039 5.3Z" fill="#EA650D"/>
</svg>
