<svg width="16" height="17" viewBox="0 0 16 17" fill="none" xmlns="http://www.w3.org/2000/svg">
<path fill-rule="evenodd" clip-rule="evenodd" d="M8.00134 8.92254C8.98969 8.92254 9.83529 8.51187 10.5381 7.69055C11.241 6.86922 11.5924 5.88087 11.5924 4.72549C11.5924 3.1109 11.241 2.00786 10.5381 1.41636C9.83529 0.824862 8.98969 0.529114 8.00134 0.529114C7.01298 0.529114 6.16738 0.824862 5.46454 1.41636C4.76169 2.00786 4.41026 3.1109 4.41026 4.72549C4.41026 5.88087 4.76169 6.86922 5.46454 7.69055C6.16738 8.51187 7.01298 8.92254 8.00134 8.92254ZM15.9144 15.0811L14.0978 11.0097C14.0559 10.926 14.0003 10.846 13.9308 10.7698C13.8613 10.6937 13.7847 10.6275 13.701 10.5714L10.8822 9.1096C10.8542 9.0958 10.8228 9.09223 10.788 9.09892C10.7533 9.1056 10.7219 9.11606 10.6938 9.13032C10.3041 9.43676 9.87961 9.66636 9.42039 9.81913C8.96118 9.97191 8.48794 10.0485 8.00067 10.049C7.5134 10.0494 7.04015 9.9728 6.58094 9.81913C6.12173 9.66547 5.69726 9.43586 5.30753 9.13032C5.27947 9.11651 5.24807 9.10604 5.21333 9.09892C5.17859 9.09179 5.14719 9.09535 5.11912 9.1096L2.30038 10.5714C2.21665 10.6271 2.14004 10.6932 2.07055 10.7698C2.00107 10.8465 1.9454 10.9264 1.90353 11.0097L0.0869467 15.0811C0.0174637 15.2206 -0.0103741 15.3666 0.00343342 15.5194C0.017241 15.6722 0.0660127 15.8183 0.149749 15.9577C0.233485 16.0829 0.341273 16.1804 0.473112 16.2503C0.604952 16.3203 0.754608 16.355 0.92208 16.3546H15.0779C15.2449 16.3546 15.3946 16.3198 15.5269 16.2503C15.6592 16.1808 15.767 16.0833 15.8503 15.9577C15.934 15.8183 15.9828 15.6722 15.9966 15.5194C16.0104 15.3666 15.9825 15.2206 15.9131 15.0811H15.9144Z" fill="#EA650D"/>
</svg>
