<svg width="25" height="20" viewBox="0 0 25 20" fill="none" xmlns="http://www.w3.org/2000/svg">
<path fill-rule="evenodd" clip-rule="evenodd" d="M22.6729 1.17937C22.5159 1.03847 22.3357 0.968018 22.1321 0.968018C21.9285 0.968018 21.756 1.03847 21.6146 1.17937L10.4732 12.4615C10.3323 12.6184 10.1598 12.6969 9.95573 12.6969C9.75165 12.6969 9.57139 12.6184 9.41494 12.4615L4.45534 7.3612C4.37712 7.28298 4.29488 7.23584 4.20864 7.2198C4.12239 7.20375 4.00882 7.19598 3.86792 7.19648C3.7897 7.19648 3.68791 7.20425 3.56255 7.2198C3.43719 7.23534 3.3354 7.28247 3.25718 7.3612L1.14141 9.31225C1.14141 9.31225 0.887515 9.51252 0.887512 9.88752C0.887509 10.2625 1.14141 10.5104 1.14141 10.5104C3.82624 13.3472 6.5134 16.187 9.27504 18.9486C9.43199 19.0896 9.60824 19.16 9.8038 19.16C9.99935 19.16 10.1756 19.0896 10.3326 18.9486L24.7646 4.49329C24.9215 4.35239 25 4.1799 25 3.97582C25 3.77174 24.9215 3.59148 24.7646 3.43503L22.6729 1.17862V1.17937Z" fill="#EA650D"/>
</svg>
