<svg width="60" height="64" viewBox="0 0 60 64" fill="none" xmlns="http://www.w3.org/2000/svg">
<path fill-rule="evenodd" clip-rule="evenodd" d="M22.2454 25.3677V49.3476C22.2454 49.7363 22.0993 50.052 21.8069 50.2945C21.5643 50.5371 21.2487 50.6584 20.8599 50.6584H18.2359C17.8472 50.6584 17.5315 50.5371 17.289 50.2945C16.9966 50.052 16.8505 49.7363 16.8505 49.3476V25.3677C16.8505 24.9789 16.9966 24.6384 17.289 24.3461C17.5315 24.1035 17.8472 23.9822 18.2359 23.9822H20.8599C21.2487 23.9822 21.5643 24.1035 21.8069 24.3461C22.0993 24.6384 22.2454 24.9789 22.2454 25.3677ZM32.8884 25.3677V49.3476C32.8884 49.7363 32.7671 50.052 32.5245 50.2945C32.2819 50.5371 31.9663 50.6584 31.5775 50.6584H28.8812C28.4925 50.6584 28.1768 50.5371 27.9343 50.2945C27.6917 50.052 27.5704 49.7363 27.5704 49.3476V25.3677C27.5704 24.9789 27.6917 24.6384 27.9343 24.3461C28.1768 24.1035 28.4925 23.9822 28.8812 23.9822H31.5775C31.9663 23.9822 32.2819 24.1035 32.5245 24.3461C32.7671 24.6384 32.8884 24.9789 32.8884 25.3677ZM43.529 25.3677V49.3476C43.529 49.7363 43.4077 50.052 43.1651 50.2945C42.9226 50.5371 42.6069 50.6584 42.2182 50.6584H39.5219C39.1331 50.6584 38.8175 50.5371 38.5749 50.2945C38.3323 50.052 38.211 49.7363 38.211 49.3476V25.3677C38.211 24.9789 38.3323 24.6384 38.5749 24.3461C38.8175 24.1035 39.1331 23.9822 39.5219 23.9822H42.2182C42.6069 23.9822 42.9226 24.1035 43.1651 24.3461C43.4077 24.6384 43.529 24.9789 43.529 25.3677ZM48.8516 55.4702V16.0379H11.5325V55.4702C11.5325 56.1016 11.6297 56.6606 11.824 57.1473C12.0184 57.6822 12.2369 58.0709 12.4795 58.3135C12.6738 58.5561 12.82 58.6774 12.918 58.6774H47.5408C47.6388 58.6774 47.7849 58.5561 47.9793 58.3135C48.1737 58.0709 48.368 57.6822 48.5624 57.1473C48.7568 56.6606 48.854 56.1016 48.854 55.4702H48.8516ZM20.8623 10.6453H39.5219L37.5533 5.83345C37.3589 5.54112 37.1155 5.37085 36.8232 5.32264H23.6309C23.3386 5.37085 23.0952 5.54112 22.9008 5.83345L20.8623 10.6453ZM59.5646 12.0284V14.6524C59.5646 15.0412 59.4184 15.3568 59.1261 15.5994C58.8835 15.8917 58.5678 16.0379 58.1791 16.0379H54.1696V55.4702C54.1696 57.8027 53.5375 59.7954 52.2733 61.4483C50.9609 63.1494 49.3819 64 47.5361 64H12.9133C11.066 64 9.48694 63.1735 8.1761 61.5206C6.86371 59.9174 6.20752 57.9737 6.20752 55.6895V16.0379H2.19804C1.8093 16.0379 1.49364 15.8917 1.25107 15.5994C1.00849 15.3568 0.887207 15.0412 0.887207 14.6524V12.0284C0.887207 11.6397 1.00849 11.324 1.25107 11.0815C1.49364 10.7891 1.8093 10.643 2.19804 10.643H15.0988L18.0144 3.71792C18.4031 2.69786 19.1565 1.8232 20.2745 1.09392C21.3443 0.364639 22.4375 0 23.5539 0H36.8932C38.0112 0 39.1043 0.364639 40.1726 1.09392C41.2409 1.8232 41.9942 2.69786 42.4327 3.71792L45.3483 10.643H58.1768C58.5655 10.643 58.8812 10.7891 59.1237 11.0815C59.4161 11.324 59.5622 11.6397 59.5622 12.0284H59.5646Z" fill="#EA650D"/>
</svg>
