<svg width="6" height="24" viewBox="0 0 6 24" fill="none" xmlns="http://www.w3.org/2000/svg">
<path fill-rule="evenodd" clip-rule="evenodd" d="M5.48002 1.03514V6.51757C5.48002 6.86262 5.44168 7.51438 5.44168 7.85942L4.82827 15.7955C4.78993 16.3706 4.29152 16.8307 3.71644 16.8307H2.25958C1.6845 16.8307 1.18609 16.3706 1.14775 15.7955L0.572675 7.85942C0.534336 7.51438 0.495997 6.86262 0.495997 6.51757V1.03514C0.495997 0.460064 0.956061 0 1.53114 0H4.44488C5.01996 0 5.48002 0.460064 5.48002 1.03514ZM5.59504 21.393C5.59504 22.9649 4.5599 24 2.98801 24C1.41613 24 0.380981 22.9649 0.380981 21.393C0.380981 19.8211 1.41613 18.7859 2.98801 18.7859C4.5599 18.7859 5.59504 19.8211 5.59504 21.393Z" fill="#EA650D"/>
</svg>
