<svg width="64" height="64" viewBox="0 0 64 64" fill="none" xmlns="http://www.w3.org/2000/svg">
<g id="House">
<path id="Shape" fill-rule="evenodd" clip-rule="evenodd" d="M0 50.6944V24.667L17.6273 1.89517L50.2188 9.2883L64 18.8714V44.1871L38.9796 62.5242L0 50.6944ZM2.51904 24.7992L38.4458 34.6646L48.7572 11.0977L18.4544 4.20245L2.51904 24.7992ZM49.8793 11.5811L39.3922 35.6644V59.6117L48.027 53.2944V37.9145L57.61 30.9945V46.2834L61.9293 43.1233V19.937L49.8793 11.5811ZM56.3684 47.1918V33.421L49.2705 38.5675L49.2686 38.5656V52.386L56.3684 47.1918ZM38.1505 60.0912V35.9248L2.07068 25.9426V49.1556L38.1505 60.0912ZM44.8358 28.0399V28.0418L50.692 24.137V31.5302L44.8358 35.8476V28.0399ZM49.4484 26.4424L46.0774 28.691V33.4229L49.4484 30.9377V26.4424ZM53.2926 31.233V23.3648L59.1488 19.5206V26.855L53.2926 31.233ZM57.9072 21.7692L54.5362 24.0178V28.7497L57.9072 26.2645V21.7692ZM27.623 39.2186V49.9846L12.0664 45.1335V34.604L27.623 39.2186ZM26.3813 40.1063L13.3099 36.2621V44.2476L26.3813 48.2698V40.1063Z" fill="#EA650D"/>
</g>
</svg>
