<svg width="12" height="16" viewBox="0 0 12 16" fill="none" xmlns="http://www.w3.org/2000/svg">
<path d="M5.99996 2.6665V0.666504L3.33329 3.33317L5.99996 5.99984V3.99984C8.20663 3.99984 9.99996 5.79317 9.99996 7.99984C9.99996 8.67317 9.83329 9.31317 9.53329 9.8665L10.5066 10.8398C11.0266 10.0198 11.3333 9.0465 11.3333 7.99984C11.3333 5.05317 8.94663 2.6665 5.99996 2.6665ZM5.99996 11.9998C3.79329 11.9998 1.99996 10.2065 1.99996 7.99984C1.99996 7.3265 2.16663 6.6865 2.46663 6.13317L1.49329 5.15984C0.973292 5.97984 0.666626 6.95317 0.666626 7.99984C0.666626 10.9465 3.05329 13.3332 5.99996 13.3332V15.3332L8.66663 12.6665L5.99996 9.99984V11.9998Z" fill="#4C81D2"/>
</svg>
