<svg width="64" height="54" viewBox="0 0 64 54" fill="none" xmlns="http://www.w3.org/2000/svg">
<path fill-rule="evenodd" clip-rule="evenodd" d="M64 5.95355V48.4852C64 51.2531 61.7046 53.5485 58.8692 53.5485H5.06329C2.29536 53.5485 0 51.2531 0 48.4852V5.95355C0 3.18562 2.29536 0.890259 5.06329 0.890259H58.8692C61.7046 0.890259 64 3.18562 64 5.95355ZM61.1646 48.4852V5.95355C61.1646 4.73836 60.1519 3.7257 58.8692 3.7257H5.06329C3.8481 3.7257 2.83544 4.73836 2.83544 5.95355V48.4852C2.83544 49.7004 3.8481 50.713 5.06329 50.713H58.8692C60.1519 50.713 61.1646 49.7004 61.1646 48.4852ZM18.4304 39.5738V47.405H5.53586V39.5738H18.4304ZM18.4304 28.7046V36.5358H5.53586V28.7046H18.4304ZM18.4304 17.9029V25.6666H5.53586V17.9029H18.4304ZM58.3966 39.5738V47.405H21.4684V39.5738H58.3966ZM18.4304 7.03372V14.8649H5.53586V7.03372H18.4304ZM58.3966 28.7046V36.5358H21.4684V28.7046H58.3966ZM58.3966 17.9029V25.6666H21.4684V17.9029H58.3966ZM58.3966 7.03372V14.8649H21.4684V7.03372H58.3966Z" fill="#EA650D"/>
</svg>
