<svg width="64" height="64" viewBox="0 0 64 64" fill="none" xmlns="http://www.w3.org/2000/svg">
<path id="Shape" fill-rule="evenodd" clip-rule="evenodd" d="M18.3266 36.6443L12.2899 52.1341L27.4887 45.8064L18.3243 36.642L18.3266 36.6443ZM62.3989 3.69831L60.5069 1.73416C59.4395 0.666759 58.1549 0.133057 56.6531 0.133057C55.1513 0.133057 53.8666 0.666759 52.7992 1.73416L48.9454 5.58799L58.5451 15.1876L62.3989 11.406C63.4663 10.3386 64 9.04153 64 7.5149C64 5.98826 63.4663 4.71529 62.3989 3.69598V3.69831ZM18.6175 35.8438L19.9999 34.5336L29.6716 44.1332L56.6531 17.1518L46.9813 7.55213L48.9454 5.58799L18.6198 35.8414L18.6175 35.8438ZM51.9265 57.8799L5.52707 57.952V11.5526H38.0356L43.1274 6.09764H2.7647C1.98897 6.09764 1.33425 6.36449 0.800553 6.89819C0.266851 7.43189 0 8.08661 0 8.86234V60.6423C0 61.3699 0.266851 62.0006 0.800553 62.5343C1.33425 63.068 1.98897 63.3348 2.7647 63.3348H54.5446C55.2723 63.3348 55.9029 63.068 56.4366 62.5343C56.9703 62.0006 57.2372 61.3699 57.2372 60.6423V22.3158L51.7823 27.6986L51.9289 57.8799H51.9265Z" fill="#EA650D"/>
</svg>
