<svg width="24" height="24" viewBox="0 0 24 24" fill="none" xmlns="http://www.w3.org/2000/svg">
<path fill-rule="evenodd" clip-rule="evenodd" d="M24 12C24 18.6216 18.6216 24 12 24C5.37844 24 0 18.6216 0 12C0 5.37844 5.37844 0 12 0C18.6216 0 24 5.37844 24 12ZM17.6829 15.6786L13.852 11.8731L17.6829 8.04228C17.9619 7.78858 17.9366 7.50951 17.6575 7.23044L16.6427 6.21565C16.3636 5.93658 16.0846 5.91121 15.8309 6.19028L12 9.99577L8.16913 6.19028C7.91543 5.91121 7.63636 5.93658 7.35729 6.21565L6.34249 7.23044C6.06343 7.50951 6.03806 7.78858 6.31713 8.04228L10.1226 11.8731L6.31713 15.6786C6.03806 15.9577 6.06343 16.2114 6.34249 16.4905L7.35729 17.5307C7.63636 17.8097 7.91543 17.8097 8.16913 17.556L12 13.7252L15.8309 17.556C16.0846 17.8097 16.3636 17.8097 16.6427 17.5307L17.6575 16.5159C17.9366 16.2114 17.9619 15.9577 17.6829 15.6786Z" fill="#E64415"/>
</svg>
