<svg width="14" height="8" viewBox="0 0 14 8" fill="none" xmlns="http://www.w3.org/2000/svg">
<path d="M13.3775 6.95442L7.57353 0.26235C7.50159 0.179017 7.41466 0.113617 7.31666 0.0686833C7.11679 -0.0231167 6.88112 -0.02245 6.68512 0.0680167C6.58519 0.113617 6.49826 0.179017 6.42733 0.26135L0.622325 6.95442C0.441325 7.16275 0.463791 7.47848 0.672458 7.65948C0.880458 7.84048 1.19686 7.81768 1.37752 7.60935L6.99993 1.12728L12.6223 7.60935C12.7213 7.72328 12.8599 7.78188 12.9999 7.78188C13.1165 7.78188 13.233 7.74155 13.3274 7.65948C13.5364 7.47848 13.5585 7.16275 13.3775 6.95442Z" fill="#414141"/>
</svg>
