<svg width="21" height="29" viewBox="0 0 21 29" fill="none" xmlns="http://www.w3.org/2000/svg">
<path d="M14.4466 0.75H3.37852C2.02575 0.75 0.918945 1.9875 0.918945 3.5V25.5C0.918945 27.0125 2.02575 28.25 3.37852 28.25H18.1359C19.4887 28.25 20.5955 27.0125 20.5955 25.5V7.625L14.4466 0.75ZM3.37852 25.5V3.5H13.2168V9H18.1359V25.5H3.37852ZM15.6764 11.75V18.625C15.6764 21.6637 13.4751 24.125 10.7572 24.125C8.0394 24.125 5.83809 21.6637 5.83809 18.625V9.6875C5.83809 7.66625 7.38762 6.0575 9.2323 6.26375C10.831 6.4425 11.987 8.07875 11.987 9.88V18.625H9.52744V9.6875C9.52744 9.3025 9.25689 9 8.91255 9C8.56821 9 8.29766 9.3025 8.29766 9.6875V18.625C8.29766 20.1375 9.40446 21.375 10.7572 21.375C12.11 21.375 13.2168 20.1375 13.2168 18.625V11.75H15.6764Z" fill="#EA650D"/>
</svg>
