<svg width="24" height="24" viewBox="0 0 24 24" fill="none" xmlns="http://www.w3.org/2000/svg">
<path fill-rule="evenodd" clip-rule="evenodd" d="M24 12C24 18.6216 18.6216 24 12 24C5.37844 24 0 18.6216 0 12C0 5.37844 5.37844 0 12 0C18.6216 0 24 5.37844 24 12ZM13.37 6.31713V4.89641C13.37 4.51586 13.0655 4.23679 12.7104 4.23679H11.2896C10.9345 4.23679 10.63 4.51586 10.63 4.89641V6.31713C10.63 6.6723 10.9345 6.97674 11.2896 6.97674H12.7104C13.0655 6.97674 13.37 6.6723 13.37 6.31713ZM15.9323 19.3319V18.0127C15.9323 17.6575 15.6279 17.3531 15.2727 17.3531H13.2939V9.10782C13.2939 8.75264 13.0148 8.4482 12.6596 8.4482H8.72727C8.37209 8.4482 8.06765 8.75264 8.06765 9.10782V10.4017C8.06765 10.7822 8.37209 11.0613 8.72727 11.0613H10.6808V17.3531H8.72727C8.37209 17.3531 8.06765 17.6575 8.06765 18.0127V19.3319C8.06765 19.6871 8.37209 19.9662 8.72727 19.9662H15.2727C15.6279 19.9662 15.9323 19.6871 15.9323 19.3319Z" fill="#666666"/>
</svg>
