<svg width="24" height="24" viewBox="0 0 24 24" fill="none" xmlns="http://www.w3.org/2000/svg">
<path fill-rule="evenodd" clip-rule="evenodd" d="M0.377332 13.773C0.377332 12.6558 0.547302 11.7165 0.887242 10.9553C1.24377 10.2101 1.7174 9.6028 2.30815 9.13331C2.8989 8.66382 3.5749 8.33191 4.33613 8.13758C5.08131 7.94326 5.85861 7.84609 6.66804 7.84609H16.8942L15.3396 15.6432L11.3801 9.69219C11.3313 9.59477 11.2502 9.51781 11.1368 9.46133C11.0233 9.40485 10.9098 9.3766 10.7963 9.3766H7.58992C7.47644 9.3766 7.37928 9.41314 7.29844 9.4862C7.2176 9.55927 7.16085 9.64425 7.12821 9.74116L5.42747 18.1702C5.39482 18.2677 5.41114 18.3526 5.47644 18.4252C5.54173 18.4977 5.62283 18.5343 5.71973 18.5348H8.07574C8.18922 18.5348 8.29053 18.5024 8.37966 18.4376C8.46879 18.3728 8.52139 18.2837 8.53746 18.1702L9.72751 12.2674L13.6871 18.2184C13.7358 18.2993 13.8169 18.3721 13.9304 18.4368C14.0439 18.5016 14.1491 18.534 14.246 18.534H17.4764C17.5899 18.534 17.6871 18.4975 17.7679 18.4244C17.8488 18.3513 17.9055 18.2664 17.9382 18.1695L19.7843 9.10921C19.8003 8.99572 19.7962 8.87421 19.7718 8.74466C19.7475 8.61511 19.7109 8.50991 19.6622 8.42907L17.6949 5.34396C17.6301 5.26312 17.541 5.19031 17.4275 5.12553C17.314 5.06076 17.2088 5.02837 17.1119 5.02837H2.73178C2.45662 5.02837 2.32707 4.97163 2.34313 4.85814C2.35919 4.74466 2.47268 4.55836 2.68359 4.29926C3.23444 3.63545 3.8498 3.04444 4.52968 2.52623C5.21008 1.99197 5.94282 1.53854 6.7279 1.16595C7.51297 0.793367 8.33484 0.509911 9.1935 0.315585C10.0682 0.105195 10.967 0 11.89 0C13.542 0 15.0966 0.315844 16.5538 0.947532C18.011 1.57922 19.2821 2.43762 20.3672 3.52274C21.4523 4.60785 22.3107 5.879 22.9424 7.33618C23.5741 8.79337 23.89 10.348 23.89 12C23.89 13.6681 23.5741 15.2227 22.9424 16.6638C22.3107 18.1215 21.4523 19.3968 20.3672 20.4897C19.2821 21.5826 18.011 22.4368 16.5538 23.0525C15.0961 23.6842 13.5415 24 11.89 24C10.1732 24 8.60223 23.6842 7.17718 23.0525C5.76819 22.4047 4.55767 21.587 3.54562 20.5993C2.53357 19.6116 1.75212 18.5104 1.20127 17.2958C0.650424 16.0811 0.375 14.9071 0.375 13.7738L0.377332 13.773Z" fill="#EA650D"/>
</svg>
