<svg width="16" height="16" viewBox="0 0 16 16" fill="none" xmlns="http://www.w3.org/2000/svg">
<circle cx="8" cy="8" r="8" fill="#EA650D"/>
<path fill-rule="evenodd" clip-rule="evenodd" d="M12.5 10.737C12.5 10.9403 12.4293 11.1126 12.2879 11.254L11.254 12.2879C11.1126 12.4293 10.9403 12.5 10.737 12.5C10.5337 12.5 10.3614 12.4293 10.22 12.2879L7.99343 10.0614L5.76686 12.2879C5.62549 12.4293 5.45316 12.5 5.24987 12.5C5.05535 12.5 4.8874 12.4293 4.74603 12.2879L3.71205 11.254C3.57068 11.1126 3.5 10.9403 3.5 10.737C3.5 10.5425 3.57068 10.3745 3.71205 10.2331L5.93862 8.00657L3.71205 5.78001C3.57068 5.63864 3.5 5.46631 3.5 5.26302C3.5 5.05973 3.57068 4.8874 3.71205 4.74603L4.74603 3.71205C4.8874 3.57068 5.05535 3.5 5.24987 3.5C5.45316 3.5 5.62549 3.57068 5.76686 3.71205L7.99343 5.93862L10.22 3.71205C10.3614 3.57068 10.5337 3.5 10.737 3.5C10.9403 3.5 11.1126 3.57068 11.254 3.71205L12.2879 4.74603C12.4293 4.8874 12.5 5.05973 12.5 5.26302C12.5 5.46631 12.4293 5.63864 12.2879 5.78001L10.0614 8.00657L12.2879 10.2331C12.4293 10.3745 12.5 10.5425 12.5 10.737V10.737Z" fill="white"/>
</svg>
