<svg width="16" height="16" viewBox="0 0 16 16" fill="none" xmlns="http://www.w3.org/2000/svg">
<circle cx="8" cy="8" r="8" fill="#EA650D"/>
<path fill-rule="evenodd" clip-rule="evenodd" d="M11.6266 4.69226C11.5677 4.63943 11.5001 4.61301 11.4238 4.61301C11.3474 4.61301 11.2827 4.63943 11.2297 4.69226L7.05167 8.92305C6.99883 8.9819 6.93414 9.01133 6.85761 9.01133C6.78108 9.01133 6.71349 8.9819 6.65482 8.92305L4.79497 7.01045C4.76563 6.98112 4.7348 6.96344 4.70245 6.95742C4.67011 6.95141 4.62752 6.94849 4.57468 6.94868C4.54535 6.94868 4.50718 6.95159 4.46017 6.95742C4.41316 6.96325 4.37499 6.98093 4.34566 7.01045L3.55224 7.74209C3.55224 7.74209 3.45703 7.81719 3.45703 7.95782C3.45703 8.09844 3.55224 8.1914 3.55224 8.1914C4.55905 9.2552 5.56674 10.3201 6.60236 11.3557C6.66121 11.4086 6.72731 11.435 6.80064 11.435C6.87397 11.435 6.94007 11.4086 6.99892 11.3557L12.4109 5.93498C12.4698 5.88215 12.4992 5.81746 12.4992 5.74093C12.4992 5.6644 12.4698 5.5968 12.4109 5.53814L11.6266 4.69198V4.69226Z" fill="white"/>
</svg>
