<svg width="14" height="14" viewBox="0 0 14 14" fill="none" xmlns="http://www.w3.org/2000/svg">
<path d="M13.3496 0.648758C12.4837 -0.215508 11.0748 -0.217108 10.209 0.649092L1.95862 8.89029C1.95729 8.89162 1.95682 8.89369 1.95542 8.89502C1.94075 8.91016 1.93169 8.93009 1.92002 8.94816C1.90875 8.96556 1.89369 8.98036 1.88569 8.99969L0.0250211 13.54C-0.0261123 13.6644 0.00255434 13.8076 0.0979543 13.9026C0.161754 13.9658 0.246688 13.9997 0.333288 13.9997C0.376288 13.9997 0.419554 13.9912 0.460554 13.9743L4.99082 12.1C5.03149 12.083 5.06829 12.059 5.09922 12.0277L11.8888 5.24589C11.8892 5.24556 11.8896 5.24549 11.8899 5.24516C11.8902 5.24482 11.8903 5.24436 11.8906 5.24409L13.3496 3.78682C13.7688 3.36782 14 2.81089 14 2.21776C14 1.62462 13.7688 1.06776 13.3496 0.648758ZM0.945288 13.0524L1.46982 11.7724C1.80162 11.9254 2.05095 12.2004 2.17069 12.5454L0.945288 13.0524ZM2.78229 12.2924C2.59522 11.784 2.21942 11.3803 1.72102 11.1594L2.38109 9.54869L2.41275 9.56022C2.65462 9.64876 2.88349 9.76856 3.09275 9.91702C3.67942 10.3298 4.09622 10.9483 4.30215 11.6636L2.78229 12.2924ZM12.8782 3.31509L11.6541 4.53789L10.332 3.21776C10.2018 3.08822 9.99082 3.08789 9.86062 3.21809C9.73042 3.34862 9.73042 3.55956 9.86062 3.68976L11.1821 5.00929L4.88349 11.3008C4.61789 10.5164 4.13809 9.83736 3.47742 9.37202C3.26482 9.22182 3.03262 9.10122 2.79129 9.00029L10.6803 1.12076C11.2864 0.514625 12.2734 0.516292 12.8782 1.12042V1.12076C13.1718 1.41343 13.3333 1.80309 13.3333 2.21776C13.3333 2.63242 13.1718 3.02216 12.8782 3.31509Z" fill="#EA650D"/>
</svg>
