<svg width="24" height="24" viewBox="0 0 24 24" fill="none" xmlns="http://www.w3.org/2000/svg">
<path fill-rule="evenodd" clip-rule="evenodd" d="M24 12C24 18.6216 18.6216 24 12 24C5.37844 24 0 18.6216 0 12C0 5.37844 5.37844 0 12 0C15.2981 0 18.2664 1.31924 20.4228 3.47569C15.4249 6.64693 13.1416 9.84355 11.8985 12.9133C10.9345 11.0106 9.18393 9.41226 9.03171 9.26004C8.62579 8.87949 7.9408 8.87949 7.56025 9.26004L6.52008 10.3256C6.13953 10.7061 6.11416 11.315 6.52008 11.7463C9.26004 14.5116 9.7167 15.6025 10.9598 20.3214C11.0106 20.4989 11.2135 20.6765 11.4672 20.6765C11.6702 20.6765 11.9493 20.5243 12 20.296C12.5328 17.6575 14.7653 9.89429 21.7674 5.02326C23.1628 7.00211 24 9.38689 24 12Z" fill="#5B9853"/>
</svg>
