<svg width="24" height="24" viewBox="0 0 24 24" fill="none" xmlns="http://www.w3.org/2000/svg">
<path fill-rule="evenodd" clip-rule="evenodd" d="M24 12C24 18.6216 18.6216 24 12 24C5.37844 24 0 18.6216 0 12C0 5.37844 5.37844 0 12 0C18.6216 0 24 5.37844 24 12ZM13.649 8.60042V4.97252C13.649 4.59197 13.3446 4.28753 12.9641 4.28753H11.0359C10.6554 4.28753 10.351 4.59197 10.351 4.97252V8.60042C10.351 8.82875 10.3763 9.26004 10.4017 9.48837L10.7822 14.74C10.8076 15.1205 11.1374 15.4249 11.518 15.4249H12.482C12.8626 15.4249 13.1924 15.1205 13.2178 14.74L13.6237 9.48837C13.6237 9.26004 13.649 8.82875 13.649 8.60042ZM13.7252 18.444C13.7252 17.4038 13.0402 16.7188 12 16.7188C10.9598 16.7188 10.2748 17.4038 10.2748 18.444C10.2748 19.4841 10.9598 20.1691 12 20.1691C13.0402 20.1691 13.7252 19.4841 13.7252 18.444Z" fill="#EA650D"/>
</svg>
